<svg xmlns="http://www.w3.org/2000/svg" width="156" height="30" viewBox="0 0 156 30">
  <defs>
    <style>
      .cls-1 {
        fill: #474752;
        fill-rule: evenodd;
      }
    </style>
  </defs>
  <path id="acesso.svg" class="cls-1" d="M1077,3039.19a14.6,14.6,0,0,1-14.52,14.65v-4.88a9.77,9.77,0,0,0,0-19.54v-4.88A14.6,14.6,0,0,1,1077,3039.19Zm-145.274-14.65L921,3053.84h5.158l10.727-29.3h-5.159Zm30.431,4.5a9.662,9.662,0,0,1,6.944,2.95l3.466-3.37a14.457,14.457,0,0,0-10.41-4.43c-7.888,0-14.306,6.71-14.306,14.97s6.418,14.98,14.306,14.98a14.466,14.466,0,0,0,10.41-4.44l-3.466-3.37a9.622,9.622,0,0,1-6.944,2.95c-5.323,0-9.491-4.44-9.491-10.12S956.834,3029.04,962.157,3029.04Zm14.58,24.77h19.155v-4.87H981.563v-7.3h12.542v-4.87H981.563v-7.23h14.329v-4.87H976.737v29.14Zm58.813-16.88c-2.31-.69-6.99-1.92-6.51-4.49,0.25-1.36,1.97-3.39,6.18-3.28a8.864,8.864,0,0,1,6.54,2.95l3.39-3.27a13.588,13.588,0,0,0-9.8-4.53c-7.07-.19-10.8,4.44-11.1,7.63-0.69,7.18,7.39,8.86,9.87,9.63,2.13,0.66,6.93,1.77,6.5,4.49-0.21,1.36-1.97,3.39-6.18,3.28a8.917,8.917,0,0,1-6.54-2.95l-3.38,3.26a13.527,13.527,0,0,0,9.8,4.54c7.07,0.19,10.79-4.45,11.1-7.64C1046.04,3039.95,1039.31,3038.05,1035.55,3036.93Zm-24.46,0c-2.3-.69-6.98-1.92-6.5-4.49,0.25-1.36,1.97-3.39,6.18-3.28a8.88,8.88,0,0,1,6.54,2.95l3.38-3.27a13.554,13.554,0,0,0-9.8-4.53c-7.07-.19-10.79,4.44-11.1,7.63-0.69,7.18,7.4,8.86,9.867,9.63,2.14,0.66,6.94,1.77,6.51,4.49-0.22,1.36-1.97,3.39-6.18,3.28a8.9,8.9,0,0,1-6.54-2.95l-3.39,3.26a13.561,13.561,0,0,0,9.8,4.54c7.07,0.19,10.8-4.45,11.1-7.64C1021.59,3039.95,1014.86,3038.05,1011.09,3036.93Zm-73.252-9.78-2.579,7.04,2.724,7.44h-5.449l-1.788,4.89h9.025l2.681,7.32h5.159Zm122.852,21.64a9.779,9.779,0,0,1,0-19.19v-4.94a14.659,14.659,0,0,0,0,29.06v-4.93Z" transform="translate(-921 -3024.19)"/>
</svg>
