<svg xmlns="http://www.w3.org/2000/svg" width="182" height="35" viewBox="0 0 182 35">
  <defs>
    <style>
      .cls-1 {
        fill: #474752;
        fill-rule: evenodd;
      }
    </style>
  </defs>
  <path id="conecta.svg" class="cls-1" d="M1435.1,3022.77h-30.17a1.65,1.65,0,0,0-1.63,1.66v30.58a1.652,1.652,0,0,0,1.63,1.67h30.17a1.654,1.654,0,0,0,1.64-1.67v-30.58A1.652,1.652,0,0,0,1435.1,3022.77Zm-0.59,20.21c-1.21-1.55-4.18-1.88-5.78-1.88a51.809,51.809,0,0,0-18.94,3.56,38.665,38.665,0,0,0-.2-5.28,56.048,56.048,0,0,1,17.57-1.92C1432.01,3037.89,1433.84,3040.63,1434.51,3042.98Zm-2.18-4.49c-1.35-1.29-2.38-2.22-6.49-2.82s-12.79.31-16.63,1.29a39.192,39.192,0,0,0-1.11-4.55,46.071,46.071,0,0,1,8.11-.71,46.586,46.586,0,0,1,7.89.67A10.224,10.224,0,0,1,1432.33,3038.49Zm-27.17-12.83c13.97-.36,21.83,5.84,23.39,7.55a15.368,15.368,0,0,0-6.25-2.57,45.028,45.028,0,0,0-8.6-.83,45.711,45.711,0,0,0-6.34.45A49.686,49.686,0,0,0,1405.16,3025.66Zm27.17,26.3c2.25-4.71,1.72-5.54-2.69-4.99a67.386,67.386,0,0,0-22.05,7.41,19.706,19.706,0,0,0,2-6.82,53.062,53.062,0,0,1,20.55-4.57C1437.78,3042.84,1434.92,3048.76,1432.33,3051.96Zm-56.75-9.28a28.027,28.027,0,0,1,3.9-.25,7.234,7.234,0,0,1,4.19.92,3.591,3.591,0,0,1,1.19,2.82,3.038,3.038,0,0,1-2.06,2.93v0.05c0.55,0.78,3.86,5.1,3.86,5.1h-3.23l-3.48-4.62h-1.47v4.62h-2.9v-11.57h0Zm2.9,5.04h1.15c1.47,0,2.33-.66,2.33-1.69,0-1.08-.81-1.61-2.15-1.63a8.987,8.987,0,0,0-1.33.08v3.24h0Zm-45.88,3.8a8.041,8.041,0,0,0,3.25.73c1.35,0,2.06-.5,2.06-1.27,0-.73-0.61-1.15-2.17-1.65-2.16-.68-3.56-1.76-3.56-3.47,0-2,1.84-3.53,4.9-3.53a8.71,8.71,0,0,1,3.31.59l-0.65,2.14a6.8,6.8,0,0,0-2.72-.56c-1.27,0-1.88.53-1.88,1.13,0,0.75.73,1.08,2.4,1.66,2.3,0.77,3.37,1.85,3.37,3.5,0,1.97-1.67,3.66-5.23,3.66a9.332,9.332,0,0,1-3.68-.73Zm17.05-2.23h-4.77v2.79h5.33v2.18h-8.28v-11.74h8.01v2.17h-5.06v2.44h4.77v2.16Zm12.44,4.43a16.307,16.307,0,0,1-4.33.66,7.7,7.7,0,0,1-5.28-1.59,5.4,5.4,0,0,1-1.83-4.26c0.02-3.9,3.16-6.14,7.41-6.14a9.669,9.669,0,0,1,3.6.58l-0.61,2.12a8.053,8.053,0,0,0-3.03-.5c-2.44,0-4.29,1.25-4.29,3.8,0,2.42,1.68,3.85,4.08,3.85a4.144,4.144,0,0,0,1.45-.18v-2.45l0.01-2.08h2.82v6.19Zm4.25-11.2v6.75c0,2.02.85,3.05,2.35,3.05,1.54,0,2.39-.97,2.39-3.05v-6.75H1374v6.58c0,3.63-2.02,5.35-5.41,5.35-3.27,0-5.19-1.64-5.19-5.38v-6.55h2.94Zm31.77,5.75c0,3.84-2.58,6.18-6.37,6.18a5.731,5.731,0,0,1-6.1-5.98,5.954,5.954,0,0,1,6.31-6.15A5.739,5.739,0,0,1,1398.11,3048.27Zm-9.37.15c0,2.3,1.19,3.92,3.16,3.92s3.12-1.71,3.12-3.99c0-2.1-1.12-3.92-3.14-3.92C1389.89,3044.43,1388.74,3046.14,1388.74,3048.42Zm-46.48-22.2a8.132,8.132,0,0,0-4.76-1.12,32.547,32.547,0,0,0-4.7.28v13.86h3.29v-5.13l0.14,0.02a10.066,10.066,0,0,0,1.2.06,7.7,7.7,0,0,0,5.05-1.47,4.241,4.241,0,0,0,1.41-3.3A3.875,3.875,0,0,0,1342.26,3026.22Zm-4.85,5.75a6.11,6.11,0,0,1-1.22-.09l-0.1-.02v-4.42l0.09-.02a6.619,6.619,0,0,1,1.51-.13c1.82,0,2.91.83,2.91,2.22C1340.6,3031.03,1339.38,3031.97,1337.41,3031.97Zm14.66-6.99c-4.45,0-7.56,3.02-7.56,7.35,0,4.27,2.94,7.15,7.3,7.15,4.64,0,7.64-2.91,7.64-7.4C1359.45,3028.54,1357.17,3024.98,1352.07,3024.98Zm-0.07,12.18c-2.41,0-3.96-1.92-3.96-4.89s1.58-4.98,3.94-4.98c2.32,0,3.94,2.01,3.94,4.89C1355.92,3035.21,1354.39,3037.16,1352,3037.16Zm17.44-3.93-0.03-.03V3033l0.09-.03a3.547,3.547,0,0,0,2.44-3.45,4.258,4.258,0,0,0-1.4-3.32c-1.07-.76-2.62-1.1-5.04-1.1a36.525,36.525,0,0,0-4.63.28v13.86h3.29v-5.62h1.97s4.17,5.52,4.24,5.62h3.62C1373.24,3038.27,1370.03,3034.07,1369.44,3033.23Zm-3.75-1.68h-1.53v-4.18l0.1-.02a10.563,10.563,0,0,1,1.64-.11c1.77,0.03,2.75.78,2.75,2.12S1367.52,3031.55,1365.69,3031.55Zm18.59-6.34v2.45h-4.31v11.58h-3.33v-11.58h-4.25v-2.45h11.89Zm7.13-.23c-4.45,0-7.56,3.02-7.56,7.35,0,4.27,2.94,7.15,7.31,7.15,4.63,0,7.62-2.91,7.62-7.4C1398.78,3028.54,1396.51,3024.98,1391.41,3024.98Zm-0.07,12.18c-2.41,0-3.97-1.92-3.97-4.89s1.59-4.98,3.95-4.98c2.32,0,3.94,2.01,3.94,4.89C1395.26,3035.21,1393.73,3037.16,1391.34,3037.16Zm67.67,0.07a0.87,0.87,0,0,0-.59.21,0.619,0.619,0,0,0-.23.49v2.9a0.619,0.619,0,0,0,.23.49,0.87,0.87,0,0,0,.59.21h3.88a0.845,0.845,0,0,0,.58-0.21,0.629,0.629,0,0,0,.24-0.49v-2.9a0.629,0.629,0,0,0-.24-0.49,0.845,0.845,0,0,0-.58-0.21h-3.88Zm53.36-2.23a7.347,7.347,0,0,0,.35-4.73c-2.23-7.93-19.11-10.55-38.2-6.13-19.64.45-35.23,7.15-35.23,15.35a7.55,7.55,0,0,0,1.62,4.5,7.44,7.44,0,0,0-.35,4.74c2.23,7.92,19.11,10.54,38.2,6.13,19.64-.46,35.24-7.16,35.24-15.37A7.471,7.471,0,0,0,1512.37,3035Zm-0.85-4.37a6.279,6.279,0,0,1-.03,3.33c-4.92-5.26-16.63-9.11-30.7-9.75C1496.63,3021.64,1509.69,3024.13,1511.52,3030.63Zm-36.85-5.21c0.7-.01,1.41-0.02,2.11-0.02,16.04,0,29.62,4.13,34.25,9.85a9.545,9.545,0,0,1-.59,1.14c-3.99-5.15-17.44-9.44-33.44-9.44a86.45,86.45,0,0,0-9.72.54c1.83-.59,3.72-1.15,5.67-1.64C1473.52,3025.7,1474.1,3025.56,1474.67,3025.42Zm19.74,11.81a0.78,0.78,0,0,1-.56-0.19,0.825,0.825,0,0,1,0-1.1,0.746,0.746,0,0,1,.56-0.2h0.11v-1.26a0.753,0.753,0,0,1,.21-0.56,0.8,0.8,0,0,1,.56-0.19,0.81,0.81,0,0,1,.56.19,0.753,0.753,0,0,1,.21.56v1.26h1.17a0.771,0.771,0,0,1,.56.2,0.825,0.825,0,0,1,0,1.1,0.765,0.765,0,0,1-.56.19h-1.17v5.04a0.731,0.731,0,0,1-.21.55,0.756,0.756,0,0,1-.55.19h-0.01a0.8,0.8,0,0,1-.56-0.19,0.731,0.731,0,0,1-.21-0.55v-5.04h-0.11Zm4.06,2.04a2.378,2.378,0,0,1,1.66-.64h4.7v-0.7a0.651,0.651,0,0,0-.23-0.49,0.952,0.952,0,0,0-.59-0.22h-3.88a0.765,0.765,0,0,1-.56-0.19,0.663,0.663,0,0,1-.21-0.55,0.7,0.7,0,0,1,.21-0.55,0.765,0.765,0,0,1,.56-0.19h3.88a2.452,2.452,0,0,1,1.66.63,2.071,2.071,0,0,1,.7,1.56v4.35a0.669,0.669,0,0,1-.22.54,0.765,0.765,0,0,1-.56.19h-0.02a0.764,0.764,0,0,1-.54-0.21,2.483,2.483,0,0,1-1.02.21h-3.88a2.4,2.4,0,0,1-1.66-.63A2.077,2.077,0,0,1,1498.47,3039.27Zm-12.16,2.05a0.888,0.888,0,0,0,.59.21h5.47a0.78,0.78,0,0,1,.56.19,0.825,0.825,0,0,1,0,1.1,0.771,0.771,0,0,1-.55.19h-5.48a2.363,2.363,0,0,1-1.65-.63,2.041,2.041,0,0,1-.71-1.55v-2.9a2.037,2.037,0,0,1,.7-1.56,2.433,2.433,0,0,1,1.66-.63h3.88a0.78,0.78,0,0,1,.56.19,0.731,0.731,0,0,1,.21.55,0.695,0.695,0,0,1-.77.75h-3.88a0.888,0.888,0,0,0-.59.21,0.619,0.619,0,0,0-.23.49v2.9A0.619,0.619,0,0,0,1486.31,3041.32Zm-9.79-1.21v0.72a0.619,0.619,0,0,0,.23.49,0.87,0.87,0,0,0,.59.21h3.88a0.78,0.78,0,0,1,.56.19,0.739,0.739,0,0,1,.21.56,0.708,0.708,0,0,1-.21.54,0.756,0.756,0,0,1-.55.19h-3.89a2.363,2.363,0,0,1-1.65-.63,2.008,2.008,0,0,1-.71-1.55v-2.9a2.037,2.037,0,0,1,.7-1.56,2.379,2.379,0,0,1,1.66-.62h3.88a2.379,2.379,0,0,1,1.66.62,2.083,2.083,0,0,1-.04,3.15,2.4,2.4,0,0,1-1.62.59h-4.7Zm-4.54-2.67a0.931,0.931,0,0,0-.59-0.22h-2.56a0.925,0.925,0,0,0-.58.22,0.59,0.59,0,0,0-.23.49v4.35a0.708,0.708,0,0,1-.21.54,0.8,0.8,0,0,1-.56.19,0.821,0.821,0,0,1-.57-0.19,0.739,0.739,0,0,1-.2-0.54v-5.8a0.723,0.723,0,0,1,.2-0.55,0.821,0.821,0,0,1,.57-0.19,0.8,0.8,0,0,1,.56.21,2.7,2.7,0,0,1,1.02-.21h2.56a2.433,2.433,0,0,1,1.66.63,2.037,2.037,0,0,1,.7,1.56v4.35a0.708,0.708,0,0,1-.21.54,0.756,0.756,0,0,1-.55.19h-0.01a0.8,0.8,0,0,1-.56-0.19,0.708,0.708,0,0,1-.21-0.54v-4.35A0.619,0.619,0,0,0,1471.98,3037.44Zm-31.15,2.12c0-6.68,11.75-12.28,27.54-13.77-2.66.81-5.19,1.73-7.56,2.72-10.98,2.22-18.46,6.54-18.46,10.98a4.278,4.278,0,0,0,.27,1.45,14.532,14.532,0,0,0-1,1.56A6.062,6.062,0,0,1,1440.83,3039.56Zm24.42-1.63v2.9a2.014,2.014,0,0,1-.75,1.58,2.365,2.365,0,0,1-1.61.6h-3.9a2.42,2.42,0,0,1-1.64-.63,2.031,2.031,0,0,1-.7-1.55v-2.9a2.037,2.037,0,0,1,.7-1.56,2.433,2.433,0,0,1,1.66-.63h3.88a2.452,2.452,0,0,1,1.66.63A2.071,2.071,0,0,1,1465.25,3037.93Zm-16.11,3.39a0.87,0.87,0,0,0,.59.21h5.47a0.8,0.8,0,0,1,.56.19,0.771,0.771,0,0,1,.21.55,0.731,0.731,0,0,1-.21.55,0.771,0.771,0,0,1-.55.19h-5.48a2.4,2.4,0,0,1-1.66-.63,2.031,2.031,0,0,1-.7-1.55v-2.9a2.037,2.037,0,0,1,.7-1.56,2.433,2.433,0,0,1,1.66-.63h3.88a0.8,0.8,0,0,1,.56.19,0.825,0.825,0,0,1,0,1.1,0.76,0.76,0,0,1-.56.2h-3.88a0.87,0.87,0,0,0-.59.21,0.619,0.619,0,0,0-.23.49v2.9A0.619,0.619,0,0,0,1449.14,3041.32Zm-7.07,7.08a6.065,6.065,0,0,1-.02-3.11c5.12,5.18,16.87,8.95,30.91,9.52C1457.05,3057.42,1443.9,3054.93,1442.07,3048.4Zm36.51,5.3c-0.6,0-1.2.01-1.8,0.01-16.04,0-29.63-4.14-34.26-9.85a10.639,10.639,0,0,1,.83-1.55c3.71,5.24,17.37,9.6,33.65,9.6a88.682,88.682,0,0,0,9.85-.54q-2.985.99-6.2,1.82C1479.95,3053.37,1479.27,3053.54,1478.58,3053.7Zm5.65-.3c2.83-.84,5.53-1.8,8.07-2.84,11.46-2.14,19.35-6.5,19.35-11.07a4.425,4.425,0,0,0-.55-2.07c0.25-.38.47-0.75,0.67-1.13a6.329,6.329,0,0,1,.97,3.27C1512.74,3046.37,1500.51,3052.05,1484.23,3053.4Zm15.9-11.87h3.88a0.845,0.845,0,0,0,.58-0.21,0.629,0.629,0,0,0,.24-0.49v-0.73h-4.7a0.931,0.931,0,0,0-.59.22,0.672,0.672,0,0,0-.23.51,0.59,0.59,0,0,0,.23.49A0.87,0.87,0,0,0,1500.13,3041.53Zm-18.32-3.11a0.605,0.605,0,0,0,.23-0.49,0.619,0.619,0,0,0-.25-0.51,0.854,0.854,0,0,0-.57-0.19h-3.88a0.87,0.87,0,0,0-.59.21,0.619,0.619,0,0,0-.23.49v0.71h4.7A0.832,0.832,0,0,0,1481.81,3038.42Z" transform="translate(-1332 -3022)"/>
</svg>
