<svg xmlns="http://www.w3.org/2000/svg" width="157.97" height="32" viewBox="0 0 157.97 32">
  <defs>
    <style>
      .cls-1 {
        fill: #474752;
        fill-rule: evenodd;
      }
    </style>
  </defs>
  <path id="contaum.svg" class="cls-1" d="M1126.9,3035.18a6.543,6.543,0,0,0,0,9.23l12.22-12.29a6.573,6.573,0,0,0,0-9.24Zm10.39,10.46a6.555,6.555,0,0,0,0,9.24l12.22-12.31a6.54,6.54,0,0,0,0-9.22Zm2.45-12.9a6.482,6.482,0,0,1,9.18,0l-12.23,12.3a6.435,6.435,0,0,1-9.17,0Zm31.88,10.34a6.579,6.579,0,0,1-4.88,2.2,6.284,6.284,0,0,1-6.12-6.56v-0.04a6.284,6.284,0,0,1,6.12-6.56,6.393,6.393,0,0,1,4.83,2.05l0.13,0.13,0.57-.57-0.14-.14a6.971,6.971,0,0,0-5.37-2.25,7.084,7.084,0,0,0-6.95,7.36v0.04a7.056,7.056,0,0,0,6.92,7.32,7.315,7.315,0,0,0,5.48-2.42l0.14-.14-0.6-.56Zm13.05-11.74a7.041,7.041,0,0,0-7.04,7.34v0.04a7.041,7.041,0,1,0,14.07,0v-0.04a7.033,7.033,0,0,0-7.03-7.34m6.22,7.36v0.04a6.244,6.244,0,0,1-6.2,6.54,6.363,6.363,0,0,1-6.24-6.58v-0.04a6.233,6.233,0,0,1,6.2-6.54,6.364,6.364,0,0,1,6.24,6.58m18.69,5.66-10.19-12.78h-0.65v14.24h0.79v-12.79l10.18,12.79h0.66v-14.24h-0.79v12.78Zm6.92-12h4.98v13.46h0.81v-13.46h4.98v-0.78H1216.5v0.78Zm20.51-.88-6.82,14.34h0.88l1.97-4.16h8.52l1.97,4.16h0.9l-6.81-14.34h-0.61Zm-3.59,9.4,3.88-8.19,3.89,8.19h-7.77Zm25.76-1.17c0,2.19-1.12,3.32-2.96,3.32s-2.97-1.17-2.97-3.42v-7.84h-3.03v7.92c0,4.08,2.26,6.15,5.96,6.15s6.03-2.06,6.03-6.25v-7.82h-3.03v7.94Zm20.55-7.94-3.61,5.86-3.62-5.86h-3.27v13.86h2.97v-8.99l3.84,5.86h0.08l3.87-5.92v9.05H1283v-13.86h-3.27Z" transform="translate(-1125.03 -3022.88)"/>
</svg>
