<svg xmlns="http://www.w3.org/2000/svg" width="174" height="40" viewBox="0 0 174 40">
  <defs>
    <style>
      .cls-1 {
        fill: #474752;
        fill-rule: evenodd;
      }
    </style>
  </defs>
  <path id="faz.svg" class="cls-1" d="M587.85,3023.01H557.466a1.655,1.655,0,0,0-1.651,1.65V3055a1.655,1.655,0,0,0,1.651,1.65H587.85A1.654,1.654,0,0,0,589.5,3055v-30.34A1.654,1.654,0,0,0,587.85,3023.01Zm-0.6,20.05c-1.218-1.54-4.2-1.86-5.813-1.86a53,53,0,0,0-19.084,3.52,36.777,36.777,0,0,0-.2-5.23,57.772,57.772,0,0,1,17.7-1.91C584.738,3038.01,586.581,3040.73,587.247,3043.06Zm-2.187-4.45c-1.367-1.28-2.4-2.21-6.537-2.8s-12.879.3-16.751,1.28a36.408,36.408,0,0,0-1.119-4.51,46.779,46.779,0,0,1,8.164-.72,47.392,47.392,0,0,1,7.955.67C582.237,3033.47,583.977,3036.53,585.06,3038.61Zm-27.372-12.73c14.077-.36,21.985,5.79,23.564,7.49a15.53,15.53,0,0,0-6.3-2.55,45.627,45.627,0,0,0-8.657-.82,46.385,46.385,0,0,0-6.393.44A45.877,45.877,0,0,0,557.688,3025.88Zm27.372,26.09c2.267-4.67,1.734-5.49-2.719-4.95a68.912,68.912,0,0,0-22.206,7.35,19.1,19.1,0,0,0,2.02-6.76,53.939,53.939,0,0,1,20.7-4.54C590.547,3042.92,587.664,3048.8,585.06,3051.97Zm-57.166-9.21a28.837,28.837,0,0,1,3.93-.24,7.334,7.334,0,0,1,4.223.91,3.53,3.53,0,0,1,1.2,2.79,3.006,3.006,0,0,1-2.085,2.91v0.05c0.557,0.78,3.894,5.06,3.894,5.06H535.8l-3.5-4.57h-1.478v4.57h-2.928v-11.48Zm2.928,5,1.162,0.01c1.474-.01,2.34-0.66,2.34-1.68,0-1.07-.812-1.6-2.169-1.62a9.078,9.078,0,0,0-1.333.08v3.21Zm-46.223,3.77a8.177,8.177,0,0,0,3.278.73c1.358,0,2.076-.5,2.076-1.26,0-.73-0.624-1.14-2.193-1.64-2.171-.67-3.585-1.75-3.585-3.44,0-1.99,1.861-3.51,4.941-3.51a8.826,8.826,0,0,1,3.334.59l-0.655,2.12a6.954,6.954,0,0,0-2.738-.55c-1.273,0-1.9.52-1.9,1.12,0,0.75.735,1.07,2.424,1.65,2.306,0.76,3.392,1.83,3.392,3.47,0,1.95-1.685,3.63-5.273,3.62a9.282,9.282,0,0,1-3.7-.72Zm17.179-2.2h-4.809v2.76h5.371v2.16H494V3042.6h8.062v2.16h-5.1v2.42h4.809v2.15Zm12.53,4.38a16.115,16.115,0,0,1-4.368.66,7.837,7.837,0,0,1-5.312-1.58,5.313,5.313,0,0,1-1.841-4.22c0.022-3.88,3.179-6.09,7.469-6.09a9.9,9.9,0,0,1,3.624.57l-0.62,2.1a8.435,8.435,0,0,0-3.048-.49c-2.461,0-4.32,1.24-4.32,3.76,0,2.4,1.685,3.82,4.107,3.82a4.508,4.508,0,0,0,1.455-.17v-2.43l0.011-2.06h2.843v6.13Zm4.284-11.11v6.71c0,2,.854,3.02,2.368,3.02,1.551,0,2.4-.97,2.4-3.02v-6.71h2.949v6.53c0,3.6-2.042,5.3-5.451,5.3-3.3,0-5.235-1.61-5.235-5.33v-6.5h2.966Zm32,5.7c0,3.82-2.6,6.13-6.417,6.13-3.878,0-6.147-2.6-6.147-5.92,0-3.49,2.5-6.1,6.361-6.1,4.015,0,6.2,2.68,6.2,5.89m-9.439.16c0,2.28,1.2,3.89,3.176,3.89,2,0,3.141-1.69,3.141-3.96,0-2.09-1.123-3.89-3.159-3.89-2,0-3.158,1.7-3.158,3.96m-46.826-22.02a8.2,8.2,0,0,0-4.791-1.12,32.875,32.875,0,0,0-4.732.28v13.75h3.314v-5.08l0.136,0.01a10.033,10.033,0,0,0,1.211.07,7.919,7.919,0,0,0,5.09-1.47,4.188,4.188,0,0,0,1.417-3.27,3.817,3.817,0,0,0-1.645-3.17m-4.883,5.69a6.418,6.418,0,0,1-1.232-.08l-0.094-.02v-4.39l0.089-.02a6.687,6.687,0,0,1,1.52-.13c1.839,0,2.934.82,2.934,2.2,0,1.51-1.235,2.44-3.217,2.44m14.77-6.94c-4.479,0-7.613,3.01-7.613,7.3,0,4.25,2.96,7.09,7.357,7.09,4.667,0,7.681-2.88,7.681-7.34,0-3.51-2.294-7.05-7.425-7.05m-0.069,12.1c-2.431,0-3.994-1.91-3.994-4.86s1.594-4.94,3.971-4.94c2.341,0,3.975,2,3.975,4.86,0,3-1.552,4.94-3.952,4.94m17.566-3.9-0.026-.03v-0.2l0.088-.03a3.521,3.521,0,0,0,2.454-3.42,4.179,4.179,0,0,0-1.412-3.3c-1.069-.75-2.631-1.09-5.07-1.09a37.169,37.169,0,0,0-4.671.28v13.75h3.312v-5.57h2s4.194,5.48,4.267,5.57H526.3c-0.754-.97-3.992-5.13-4.589-5.96m-3.78-1.67h-1.545v-4.15l0.105-.02a10.972,10.972,0,0,1,1.654-.1c1.785,0.02,2.769.77,2.769,2.1s-1.144,2.17-2.983,2.17m18.73-6.29v2.43H532.32v11.49h-3.359v-11.49h-4.269v-2.43h11.971Zm7.185-.24c-4.485,0-7.617,3.01-7.617,7.3,0,4.25,2.957,7.09,7.359,7.09,4.664,0,7.679-2.88,7.679-7.33,0-3.52-2.294-7.06-7.421-7.06m-0.076,12.1c-2.423,0-3.994-1.91-3.994-4.86s1.6-4.94,3.974-4.94c2.336,0,3.973,2,3.973,4.86,0,3-1.549,4.94-3.953,4.94m86.29,4.88a0.4,0.4,0,0,0-.108.18l-0.428,1.95-0.213.99a0.338,0.338,0,0,0,.111.35,0.511,0.511,0,0,0,.4.16h8.072a0.477,0.477,0,0,0,.337-0.12,0.556,0.556,0,0,0,.145-0.32l0.09-.44,0.217-1.02a0.453,0.453,0,0,0-.132-0.4,0.512,0.512,0,0,0-.367-0.12h-5.194a0.16,0.16,0,0,1-.155-0.07,0.108,0.108,0,0,1,.022-0.15l7.371-7.15a0.368,0.368,0,0,0,.089-0.18l0.511-2.16a0.329,0.329,0,0,0-.043-0.27,0.263,0.263,0,0,0-.063-0.08,0.529,0.529,0,0,0-.4-0.16H629.986a1.2,1.2,0,0,1,.139.13,3.7,3.7,0,0,1,.784,1.14,3.19,3.19,0,0,1,.265,1.03,0.147,0.147,0,0,0,.143.12h5.193a0.145,0.145,0,0,1,.155.08,0.129,0.129,0,0,1-.02.14Zm26.607-20.36-12.706,1.32,0.447-2.69A1.162,1.162,0,0,0,643.1,3019l-36.78,3.83a2.267,2.267,0,0,0-1.872,1.78l-0.946,4.84,14.369-1.24,25.621-2.21,4.767-.41a1.184,1.184,0,0,1,1.333,1.47l-0.419,2.51-2.957,17.75-0.5,3.03a1.78,1.78,0,0,1-1.842,1.49l-1.42-.08-32.206-1.67-7.048-.36-0.977,5.02a1.453,1.453,0,0,0,1.264,1.75l36.186,2.5a1.755,1.755,0,0,0,1.82-1.46l0.4-2.38,6.193,0.43a1.786,1.786,0,0,0,1.855-1.49l1.071-6.44,1.332,0.09a1.754,1.754,0,0,0,1.82-1.47l3.834-23.03a1.165,1.165,0,0,0-1.319-1.44m-44.025,11.56a4.368,4.368,0,0,0-1.173.58,3.6,3.6,0,0,0-.9.86,2.976,2.976,0,0,0-.5,1.06l-0.152.75-1.283,6.23-0.516,2.51a0.314,0.314,0,0,0-.015.09,0.361,0.361,0,0,0,.358.36h2.259a0.42,0.42,0,0,0,.4-0.26l0.386-1.99,0.1-.5,0.286-1.46h0a0.158,0.158,0,0,1,.178-0.11h5.4a0.155,0.155,0,0,0,.149-0.12l0.445-2.13a0.164,0.164,0,0,0-.168-0.16h-5.3a0.217,0.217,0,0,1-.152-0.04,0.118,0.118,0,0,1-.022-0.12h0l0.508-2.62h0c0-.01,0-0.01,0-0.01a0.829,0.829,0,0,1,.368-0.5,1.074,1.074,0,0,1,.629-0.21h4.795a0.146,0.146,0,0,0,.143-0.12h0a3.735,3.735,0,0,1,.629-1.31,4.778,4.778,0,0,1,.969-0.99H614a4.329,4.329,0,0,0-1.353.21m16.64,1.23a2.4,2.4,0,0,0-.384-0.5,3.277,3.277,0,0,0-1.087-.69,4.118,4.118,0,0,0-1.429-.25h-2.105a4.34,4.34,0,0,0-1.354.21,4.433,4.433,0,0,0-1.174.58,3.67,3.67,0,0,0-.9.86,2.619,2.619,0,0,0-.379.71,2.57,2.57,0,0,0-.1.35l-1.606,7.69-0.378,1.8c0,0.01,0,.03,0,0.04s0,0.03,0,.04a0.375,0.375,0,0,0,.376.37h2.155a0.444,0.444,0,0,0,.379-0.21,0.385,0.385,0,0,0,.053-0.12l0.369-1.72,0.46-2.15a0.127,0.127,0,0,1,.153-0.11h2.919a0.187,0.187,0,0,1,.145.04,0.146,0.146,0,0,1,.009.12c0,0.02-.273,1.29-0.492,2.32-0.155.71-.28,1.31-0.28,1.31a1.447,1.447,0,0,0-.017.16,0.358,0.358,0,0,0,.4.36h2.214a0.429,0.429,0,0,0,.419-0.35l0.264-1.27,1.633-7.9a2.286,2.286,0,0,0-.045-1.19,2.34,2.34,0,0,0-.223-0.5m-2.644,1.26c-0.01.03-.657,3.1-0.657,3.1a0.173,0.173,0,0,1-.176.12h-2.873c-0.146,0-.209-0.05-0.176-0.16l0.561-2.63a0.826,0.826,0,0,1,.364-0.5,1.084,1.084,0,0,1,.633-0.21h2.09a0.227,0.227,0,0,1,.234.28" transform="translate(-484 -3019)"/>
</svg>
