<svg xmlns="http://www.w3.org/2000/svg" width="158" height="35" viewBox="0 0 158 35">
  <defs>
    <style>
      .cls-1 {
        fill: #474752;
        fill-rule: evenodd;
      }
    </style>
  </defs>
  <path id="xp-investimentos.svg" class="cls-1" d="M756.193,3052.11h0.868v-12.37h-0.868v12.37Zm0-15.75h0.868v-1.75h-0.868v1.75Zm7.857,3.24a4.32,4.32,0,0,0-3.874,2.49v-2.35H759.3l0.007,0.21c0.047,1.27.047,2.57,0.047,3.42v8.74h0.867v-6.3a8.808,8.808,0,0,1,.113-1.76c0.453-2.25,1.841-3.55,3.806-3.55,2.577,0,3.106,1.76,3.106,4.41v7.2h0.868v-7.79C768.116,3041.19,766.748,3039.6,764.05,3039.6Zm14.151,0.14-4.381,10.9-4.428-10.9h-0.924l5.054,12.37h0.571l5.033-12.37H778.2Zm5.646-.17c-3.792,0-5.136,3.54-5.136,6.57,0,3.9,1.893,6.23,5.066,6.23,2.371,0,3.828-1.26,4.455-3.87l0.062-.25H787.42l-0.041.15c-0.614,2.17-1.691,3.09-3.6,3.09-3.1,0-4.2-2.82-4.2-5.23v-0.2h8.8v-0.87C788.379,3042.48,787.188,3039.57,783.847,3039.57Zm3.648,5.61H779.6c0.225-1.87,1.087-4.73,4.246-4.73,3.014,0,3.574,2.87,3.64,4.58C787.487,3045.04,787.49,3045.1,787.5,3045.18Zm5.962,0.23c-1.649-.48-3.206-0.93-3.206-2.58,0-1.82,1.608-2.47,2.987-2.47,1.3,0,2.849.46,2.849,2.66v0.2h0.868v-0.2c0-2.25-1.355-3.54-3.717-3.54-1.857,0-3.856,1.05-3.856,3.35,0,2.38,2.045,2.95,3.851,3.46,1.643,0.46,3.063.86,3.063,2.38,0,2.57-2.484,2.77-3.245,2.77-2,0-3.036-.97-3.081-2.89l0-.2H789.1v0.2c0,2.36,1.476,3.78,3.949,3.78,2.5,0,4.113-1.44,4.113-3.66C797.164,3046.48,795.194,3045.91,793.457,3045.41Zm9,5.84a4.025,4.025,0,0,1-.609.05c-1.215,0-1.427-.62-1.427-1.92v-8.76h2.56v-0.88h-2.56v-3.11l-0.87.53v2.58h-2.4v0.88h2.4v9.09c0,2.04,1.136,2.47,2.088,2.47a5.728,5.728,0,0,0,1.318-.12l0.163-.03v-0.84l-0.213.02C802.752,3051.22,802.6,3051.24,802.458,3051.25Zm1.726,0.86h0.87v-12.37h-0.87v12.37Zm0-15.75h0.87v-1.75h-0.87v1.75Zm15.168,3.28a3.953,3.953,0,0,0-3.9,2.73,3.584,3.584,0,0,0-3.6-2.73,3.981,3.981,0,0,0-3.686,2.33v-2.23H807.3v0.2c0,0.5.011,1.1,0.022,1.7s0.024,1.22.024,1.73v8.74h0.868v-6.59a7.8,7.8,0,0,1,.182-1.89,3.637,3.637,0,0,1,3.458-3.1c2.661,0,3.059,2.58,3.059,4.12v7.46h0.868v-6.89a8.273,8.273,0,0,1,.181-1.87,3.3,3.3,0,0,1,3.39-2.82c2.059,0,3.1,1.3,3.1,3.88v7.7h0.87v-7.14a8.163,8.163,0,0,0-.491-3.32A3.458,3.458,0,0,0,819.352,3039.64Zm10.631-.07c-3.792,0-5.136,3.54-5.136,6.57,0,3.9,1.894,6.23,5.067,6.23,2.369,0,3.827-1.26,4.456-3.87l0.061-.25h-0.876l-0.04.15c-0.614,2.17-1.691,3.09-3.6,3.09-3.1,0-4.2-2.82-4.2-5.23v-0.2h8.8v-0.87C834.514,3042.48,833.324,3039.57,829.983,3039.57Zm3.649,5.61h-7.894c0.223-1.87,1.083-4.73,4.245-4.73,3.013,0,3.574,2.87,3.64,4.58C833.623,3045.04,833.628,3045.1,833.632,3045.18Zm7.132-5.58a4.318,4.318,0,0,0-3.872,2.49v-2.35h-0.876l0.008,0.21c0.047,1.27.047,2.57,0.047,3.42v8.74h0.868v-6.3a8.964,8.964,0,0,1,.111-1.76c0.453-2.25,1.841-3.55,3.807-3.55,2.577,0,3.105,1.76,3.105,4.41v7.2h0.868v-7.79C844.83,3041.19,843.462,3039.6,840.764,3039.6Zm9.718,11.65a4.022,4.022,0,0,1-.608.05c-1.214,0-1.428-.62-1.428-1.92v-8.76h2.561v-0.88h-2.561v-3.11l-0.87.53v2.58h-2.4v0.88h2.4v9.09c0,2.04,1.136,2.47,2.088,2.47a5.728,5.728,0,0,0,1.318-.12l0.163-.03v-0.84l-0.213.02C850.776,3051.22,850.628,3051.23,850.482,3051.25Zm5.555-11.7c-3.91,0-5.3,3.38-5.3,6.28,0,3.02,1.389,6.54,5.3,6.54,3.449,0,5.254-3.29,5.254-6.54C861.291,3041.96,859.279,3039.55,856.037,3039.55Zm0,11.94c-3.06,0-4.431-2.83-4.431-5.64,0-2.69,1.371-5.42,4.431-5.42,3.238,0,4.386,2.92,4.386,5.42C860.423,3048.57,859.051,3051.49,856.037,3051.49Zm10.255-6.08c-1.649-.48-3.207-0.93-3.207-2.58,0-1.82,1.61-2.47,2.989-2.47,1.3,0,2.849.46,2.849,2.66v0.2h0.868v-0.2c0-2.25-1.356-3.54-3.717-3.54-1.857,0-3.857,1.05-3.857,3.35,0,2.38,2.046,2.95,3.851,3.46,1.644,0.46,3.064.86,3.064,2.38,0,2.57-2.483,2.77-3.244,2.77-2,0-3.036-.97-3.081-2.89l0-.2h-0.863v0.2c0,2.36,1.476,3.78,3.949,3.78,2.5,0,4.112-1.44,4.112-3.66C870,3046.48,868.031,3045.91,866.292,3045.41Zm-122.06,6.76a6.723,6.723,0,0,1-2.777-.64v5.45h4.6a4.232,4.232,0,0,0,4.2-4.26v-4.1A7.038,7.038,0,0,1,744.232,3052.17Zm-7.516-2.88v-10.13c-1.385,1.9-3.229,4.42-3.688,5.05C733.471,3044.82,735.276,3047.3,736.716,3049.29Zm9.336-27.33H716.194a4.232,4.232,0,0,0-4.2,4.26v26.5a4.232,4.232,0,0,0,4.2,4.26h20.522v-5.08h-3.765s-1.819-2.56-2.69-3.78c-0.873,1.22-2.692,3.78-2.692,3.78h-5.662s4.8-6.61,5.563-7.66c-0.748-1.04-5.256-7.28-5.256-7.28h5.658s1.573,2.22,2.389,3.37c0.816-1.15,2.389-3.37,2.389-3.37h6.616s0.494,0.94.675,1.28a6.8,6.8,0,0,1,4.291-1.55,7.038,7.038,0,0,1,6.017,3.55v-14.02A4.232,4.232,0,0,0,746.052,3021.96Zm0.5,22.47a2.595,2.595,0,1,0-2.533,3.09A2.86,2.86,0,0,0,746.549,3044.43Z" transform="translate(-712 -3021.97)"/>
</svg>
